<svg width="186" height="36" viewBox="0 0 186 36" fill="none" xmlns="http://www.w3.org/2000/svg">
<path d="M112 0.899902H0.599609V36H112V0.899902Z" fill="#F4F4F2"/>
<path d="M183.7 3V33.8999H108.4V3H183.7ZM185.8 0.899902H106.3V35.8999H185.8V0.899902Z" fill="#F4F4F2"/>
<path d="M122 9.6001H130C132 9.6001 133.599 10.2002 134.599 11.2002C135.399 12.0002 135.799 13.0001 135.799 14.1001V14.2002C135.799 16.3002 134.599 17.5002 133.299 18.2002C135.399 18.9002 136.799 20.1 136.799 22.5V22.6001C136.799 25.8001 134.2 27.5 130.2 27.5H122V9.6001ZM129.299 17.1001C131.299 17.1001 132.7 16.3002 132.7 14.7002V14.6001C132.7 13.2001 131.599 12.2998 129.599 12.2998H125V17H129.299V17.1001ZM130.2 24.6001C132.3 24.6001 133.599 23.8002 133.599 22.2002V22.1001C133.599 20.6001 132.4 19.7002 129.9 19.7002H124.9V24.6001H130.2Z" fill="#F4F4F2"/>
<path d="M139.5 18.5C139.5 13.4 143.399 9.2998 148.799 9.2998C154.299 9.2998 158.099 13.3999 158.099 18.3999V18.5C158.099 23.5 154.199 27.7002 148.799 27.7002C143.299 27.6002 139.5 23.5 139.5 18.5ZM154.799 18.5C154.799 15 152.299 12.1001 148.799 12.1001C145.299 12.1001 142.799 14.8999 142.799 18.3999V18.5C142.799 22 145.299 24.7998 148.799 24.7998C152.299 24.7998 154.799 22 154.799 18.5Z" fill="#F4F4F2"/>
<path d="M165.7 18.2998L159.5 9.6001H163.2L167.6 16L172 9.6001H175.6L169.4 18.2998L175.8 27.3999H172.1L167.4 20.7002L162.7 27.3999H159.1L165.7 18.2998Z" fill="#F4F4F2"/>
<path d="M12.0996 9.7002H17.3997C18.1997 9.7002 18.8997 9.8 19.3997 10C19.9997 10.2 20.4997 10.4999 20.8997 10.8999C21.2997 11.2999 21.5996 11.7002 21.7996 12.2002C21.9996 12.7002 22.0996 13.1998 22.0996 13.7998C22.0996 14.6998 21.8996 15.4 21.4996 16C21.0996 16.6 20.4996 17.0999 19.7996 17.3999C20.9996 17.6999 21.8996 18.2001 22.5996 19.1001C23.2996 20.0001 23.5996 20.9001 23.5996 22.1001C23.5996 22.8001 23.4996 23.4 23.2996 24C23.0996 24.6 22.6996 25.1001 22.2996 25.6001C21.8996 26.0001 21.2996 26.4001 20.5996 26.6001C19.8996 26.9001 19.1996 27 18.2996 27H12.1996V9.7002H12.0996ZM17.6996 17.1001C18.8996 17.1001 19.7996 16.8001 20.2996 16.1001C20.7996 15.5001 21.0996 14.6002 21.0996 13.7002C21.0996 13.2002 20.9997 12.7999 20.8997 12.3999C20.6997 11.9999 20.4996 11.5998 20.1996 11.2998C19.8996 10.9998 19.4996 10.8001 18.9996 10.6001C18.4996 10.4001 17.8996 10.2998 17.1996 10.2998H12.8997V17.1001H17.6996ZM17.9996 26.2002C18.7996 26.2002 19.4996 26.0999 20.0996 25.8999C20.6996 25.6999 21.1996 25.4 21.5996 25C21.9996 24.6 22.2997 24.2002 22.3997 23.7002C22.5997 23.2002 22.6996 22.6001 22.6996 22.1001C22.6996 21.5001 22.5997 20.9999 22.3997 20.3999C22.1997 19.8999 21.8996 19.4001 21.4996 19.1001C21.0996 18.7001 20.5996 18.4002 19.9996 18.2002C19.3996 18.0002 18.6996 17.8999 17.9996 17.8999H12.8997V26.2998H17.9996V26.2002Z" fill="#023020"/>
<path d="M31.6997 9.7002H32.4997V26.2002H40.7997V26.8999H31.6997V9.7002Z" fill="#023020"/>
<path d="M47.9997 26.8999H47.1997L54.1997 9.2998H54.2997L61.2997 26.8999H60.4997L59.0997 23.3999H49.3997L47.9997 26.8999ZM54.2997 11.1001L49.6997 22.7002H58.8997L54.2997 11.1001Z" fill="#023020"/>
<path d="M75.7994 27.1001C74.5994 27.1001 73.3994 26.8999 72.2994 26.3999C71.1994 25.9999 70.2994 25.4001 69.4994 24.6001C68.6994 23.8001 68.0994 22.8998 67.5994 21.7998C67.1994 20.6998 66.8994 19.4998 66.8994 18.2998C66.8994 16.9998 67.0994 15.7998 67.5994 14.7998C67.9994 13.6998 68.6994 12.8 69.3994 12C70.1994 11.2 71.0994 10.6002 72.0994 10.2002C73.1994 9.8002 74.2994 9.5 75.4994 9.5C76.7994 9.5 78.0994 9.7998 79.1994 10.2998C80.2994 10.7998 81.2994 11.6001 82.0994 12.6001L81.4994 13.1001C80.7994 12.2001 79.8994 11.5 78.8994 11C77.8994 10.5 76.6994 10.2998 75.4994 10.2998C74.3994 10.2998 73.3994 10.4999 72.3994 10.8999C71.3994 11.2999 70.5994 11.9001 69.8994 12.6001C69.1994 13.3001 68.6994 14.2002 68.2994 15.2002C67.8994 16.2002 67.6994 17.1999 67.6994 18.3999C67.6994 19.5999 67.8994 20.6001 68.2994 21.6001C68.6994 22.6001 69.2994 23.4002 69.9994 24.2002C70.6994 24.9002 71.4994 25.4999 72.4994 25.8999C73.4994 26.2999 74.4994 26.5 75.6994 26.5C77.0994 26.5 78.2994 26.2002 79.3994 25.7002C80.4994 25.1002 81.3994 24.3999 82.0994 23.3999L82.6994 23.8999C81.8994 24.9999 80.8994 25.7999 79.6994 26.3999C78.4994 26.7999 77.1994 27.1001 75.7994 27.1001Z" fill="#023020"/>
<path d="M101.299 26.8999L90.6994 18.2998L101.299 9.7002H99.8994L89.3994 18.2998L99.8994 26.8999H101.299Z" fill="#023020"/>
</svg>
