<svg width="36" height="36" viewBox="0 0 36 36" fill="none" xmlns="http://www.w3.org/2000/svg">
<path d="M17.7998 4C22.4998 4 22.9998 4.0001 24.8998 4.1001C26.5998 4.2001 27.4998 4.5002 28.1998 4.7002C28.9998 5.0002 29.5998 5.4 30.1998 6C30.7998 6.6 31.1998 7.2 31.4998 8C31.6998 8.6 31.9998 9.4998 32.0998 11.2998C32.1998 13.0998 32.1998 13.6999 32.1998 18.3999C32.1998 23.0999 32.1998 23.6 32.0998 25.5C31.9998 27.2 31.6998 28.0998 31.4998 28.7998C31.1998 29.5998 30.7998 30.1998 30.1998 30.7998C29.5998 31.3998 28.9998 31.8001 28.1998 32.1001C27.5998 32.3001 26.6998 32.6002 24.8998 32.7002C23.0998 32.8002 22.4998 32.7998 17.7998 32.7998C13.0998 32.7998 12.5998 32.8002 10.6998 32.7002C8.99983 32.6002 8.09984 32.3001 7.39984 32.1001C6.59984 31.8001 5.99984 31.3998 5.39984 30.7998C4.79984 30.1998 4.39979 29.5998 4.09979 28.7998C3.89979 28.1998 3.59982 27.3 3.49982 25.5C3.39982 23.7 3.39984 23.0999 3.39984 18.3999C3.39984 13.6999 3.39982 13.1998 3.49982 11.2998C3.59982 9.5998 3.89979 8.7 4.09979 8C4.39979 7.2 4.79984 6.6 5.39984 6C5.99984 5.4 6.59984 5.0002 7.39984 4.7002C7.99984 4.5002 8.89983 4.2001 10.6998 4.1001C12.4998 4.1001 13.0998 4 17.7998 4ZM17.7998 0.899902C12.9998 0.899902 12.3998 0.9 10.5998 1C8.69979 1.1 7.4998 1.3998 6.2998 1.7998C5.0998 2.1998 4.19983 2.7998 3.19983 3.7998C2.19983 4.7998 1.59983 5.7999 1.19983 6.8999C0.799829 7.9999 0.499841 9.3002 0.399841 11.2002C0.299841 13.1002 0.299805 13.6999 0.299805 18.3999C0.299805 23.1999 0.299841 23.8001 0.399841 25.6001C0.499841 27.5001 0.799829 28.6999 1.19983 29.8999C1.59983 31.0999 2.19983 32 3.19983 33C4.19983 34 5.1998 34.6 6.2998 35C7.3998 35.4 8.69979 35.6998 10.5998 35.7998C12.4998 35.8998 13.0998 35.8999 17.7998 35.8999C22.5998 35.8999 23.1998 35.8998 24.9998 35.7998C26.8998 35.6998 28.0998 35.4 29.2998 35C30.4998 34.6 31.3998 34 32.3998 33C33.3998 32 33.9998 30.9999 34.3998 29.8999C34.7998 28.7999 35.0998 27.5001 35.1998 25.6001C35.2998 23.7001 35.2998 23.0999 35.2998 18.3999C35.2998 13.5999 35.2998 13.0002 35.1998 11.2002C35.0998 9.3002 34.7998 8.0999 34.3998 6.8999C33.9998 5.6999 33.3998 4.7998 32.3998 3.7998C31.3998 2.7998 30.3998 2.1998 29.2998 1.7998C28.1998 1.3998 26.8998 1.1 24.9998 1C23.0998 0.9 22.4998 0.899902 17.7998 0.899902Z" fill="#F4F4F2"/>
<path d="M17.7998 9.3999C12.7998 9.3999 8.7998 13.3999 8.7998 18.3999C8.7998 23.3999 12.7998 27.3999 17.7998 27.3999C22.7998 27.3999 26.7998 23.3999 26.7998 18.3999C26.7998 13.3999 22.7998 9.3999 17.7998 9.3999ZM17.7998 24.2002C14.5998 24.2002 11.9998 21.5999 11.9998 18.3999C11.9998 15.1999 14.5998 12.6001 17.7998 12.6001C20.9998 12.6001 23.5998 15.1999 23.5998 18.3999C23.5998 21.5999 20.9998 24.2002 17.7998 24.2002Z" fill="#F4F4F2"/>
<path d="M29.2 9C29.2 10.2 28.3 11.1001 27.1 11.1001C25.9 11.1001 25 10.2 25 9C25 7.8 25.9 6.8999 27.1 6.8999C28.3 6.8999 29.2 7.9 29.2 9Z" fill="#F4F4F2"/>
</svg>
