<svg width="306" height="80" viewBox="0 0 306 80" fill="none" xmlns="http://www.w3.org/2000/svg">
<path d="M108.9 1.70007H120.3C123.9 1.70007 126.6 2.70007 128.4 4.70007C130.2 6.60007 131.2 9.10007 131.2 11.9001C131.2 14.7001 130.3 17.1001 128.4 19.1001C126.5 21.0001 123.7 21.9001 119.9 21.9001H115.1V32.5001H108.9V1.70007ZM115.1 16.3001H120.1C121.6 16.3001 122.8 15.9001 123.7 15.0001C124.5 14.2001 125 13.1001 125 11.8001C125 10.5001 124.6 9.50007 123.8 8.70007C123 7.90007 121.9 7.40007 120.5 7.40007H115.2V16.3001H115.1Z" fill="#023020"/>
<path d="M132.4 21.1001C132.4 17.7001 133.5 14.9001 135.8 12.6001C138.1 10.3001 141 9.1001 144.6 9.1001C148.1 9.1001 151.1 10.3001 153.4 12.6001C155.7 14.9001 156.8 17.7001 156.8 21.1001C156.8 24.5001 155.7 27.3001 153.4 29.6001C151.1 31.9001 148.2 33.1001 144.6 33.1001C141.1 33.1001 138.1 31.9001 135.8 29.6001C133.5 27.3001 132.4 24.5001 132.4 21.1001ZM140.1 25.7001C141.3 27.0001 142.8 27.6001 144.6 27.6001C146.4 27.6001 147.8 27.0001 149.1 25.7001C150.3 24.4001 150.9 22.8001 150.9 21.1001C150.9 19.3001 150.3 17.8001 149.1 16.5001C147.9 15.2001 146.4 14.6001 144.6 14.6001C142.8 14.6001 141.3 15.2001 140.1 16.5001C138.9 17.7001 138.3 19.3001 138.3 21.1001C138.3 22.9001 138.9 24.5001 140.1 25.7001Z" fill="#023020"/>
<path d="M166.1 0.800049V32.5H160.2V0.800049H166.1Z" fill="#023020"/>
<path d="M176.7 0.800049V32.5H170.8V0.800049H176.7Z" fill="#023020"/>
<path d="M191.701 24.6L196.9 9.80005H203.3L194.201 33.7C193.101 36.6 191.801 38.8 190.201 40.2C188.701 41.6 186.8 42.3001 184.5 42.3001C182.8 42.3001 181.3 41.9 180.1 41.2L181.1 36.3001C182.1 36.8001 183.1 37.1 184 37.1C185.8 37.1 187.3 35.9 188.4 33.5L188.9 32.5L179 9.80005H185.8L191.701 24.6Z" fill="#023020"/>
<path d="M221.9 12.5001V9.80007H227.5V32.5001H221.9V29.9001C220 32.0001 217.5 33.1001 214.6 33.1001C211.3 33.1001 208.6 32.0001 206.5 29.7001C204.4 27.4001 203.3 24.6001 203.3 21.1001C203.3 17.7001 204.4 14.9001 206.5 12.6001C208.6 10.3001 211.3 9.20007 214.6 9.20007C217.4 9.20007 219.9 10.3001 221.9 12.5001ZM221.9 21.1001C221.9 19.3001 221.3 17.8001 220.1 16.5001C218.9 15.2001 217.4 14.6001 215.6 14.6001C213.7 14.6001 212.2 15.2001 211 16.5001C209.8 17.8001 209.2 19.3001 209.2 21.1001C209.2 22.9001 209.8 24.5001 211 25.8001C212.2 27.1001 213.7 27.7001 215.5 27.7001C217.3 27.7001 218.9 27.1001 220 25.8001C221.3 24.5001 221.9 22.9001 221.9 21.1001Z" fill="#023020"/>
<path d="M238.1 32.5001H232.2V9.80007H238V13.0001C238.6 11.9001 239.6 10.9001 240.8 10.2001C242.1 9.50007 243.5 9.20007 245.1 9.20007C247.6 9.20007 249.7 10.0001 251.4 11.7001C253.1 13.3001 254 15.7001 254 18.7001V32.6001H248.1V20.2001C248.1 18.4001 247.7 17.0001 246.8 16.0001C245.9 15.0001 244.8 14.5001 243.3 14.5001C241.7 14.5001 240.5 15.0001 239.5 16.1001C238.5 17.2001 238.1 18.6001 238.1 20.3001V32.5001Z" fill="#023020"/>
<path d="M275.701 12.5001V9.80007H281.301V32.5001H275.701V29.9001C273.801 32.0001 271.301 33.1001 268.401 33.1001C265.101 33.1001 262.401 32.0001 260.301 29.7001C258.201 27.4001 257.101 24.6001 257.101 21.1001C257.101 17.7001 258.201 14.9001 260.301 12.6001C262.401 10.3001 265.101 9.20007 268.401 9.20007C271.301 9.20007 273.701 10.3001 275.701 12.5001ZM275.801 21.1001C275.801 19.3001 275.201 17.8001 274.001 16.5001C272.801 15.2001 271.301 14.6001 269.501 14.6001C267.601 14.6001 266.101 15.2001 264.901 16.5001C263.701 17.8001 263.101 19.3001 263.101 21.1001C263.101 22.9001 263.701 24.5001 264.901 25.8001C266.101 27.1001 267.601 27.7001 269.401 27.7001C271.201 27.7001 272.801 27.1001 273.901 25.8001C275.201 24.5001 275.801 22.9001 275.801 21.1001Z" fill="#023020"/>
<path d="M137.3 69.5001H130.8L128.5 62.8001H117.7L115.3 69.5001H108.8L120.6 38.7001H125.6L137.3 69.5001ZM126.7 57.3001L123.1 47.0001L119.4 57.3001H126.7Z" fill="#023020"/>
<path d="M149.8 70.0001C146.3 70.0001 143.4 68.9001 141.1 66.7001C138.8 64.5001 137.7 61.7001 137.7 58.1001C137.7 54.6001 138.8 51.7001 141.1 49.5001C143.4 47.2001 146.3 46.1001 149.9 46.1001C152.2 46.1001 154.4 46.7001 156.3 47.8001C158.2 48.9001 159.6 50.5001 160.5 52.5001L155.8 55.1001C154.4 52.8001 152.5 51.6001 150 51.6001C148.1 51.6001 146.6 52.2001 145.4 53.5001C144.2 54.7001 143.6 56.3001 143.6 58.1001C143.6 60.0001 144.2 61.5001 145.4 62.8001C146.6 64.0001 148.1 64.6001 149.9 64.6001C151.1 64.6001 152.2 64.3001 153.3 63.6001C154.4 63.0001 155.2 62.1001 155.7 61.1001L160.5 63.9001C159.5 65.7001 158.1 67.2001 156.2 68.3001C154.3 69.5001 152.2 70.0001 149.8 70.0001Z" fill="#023020"/>
<path d="M180.6 49.5001V46.8001H186.201V69.5001H180.6V66.9001C178.7 69.0001 176.2 70.1001 173.3 70.1001C170 70.1001 167.301 69.0001 165.201 66.7001C163.101 64.4001 162 61.6001 162 58.1001C162 54.7001 163.101 51.9001 165.201 49.6001C167.301 47.3001 170 46.2001 173.3 46.2001C176.2 46.2001 178.6 47.3001 180.6 49.5001ZM180.701 58.1001C180.701 56.3001 180.1 54.8001 178.9 53.5001C177.7 52.2001 176.2 51.6001 174.4 51.6001C172.5 51.6001 171 52.2001 169.8 53.5001C168.6 54.8001 168 56.3001 168 58.1001C168 59.9001 168.6 61.5001 169.8 62.8001C171 64.1001 172.5 64.7001 174.3 64.7001C176.1 64.7001 177.7 64.1001 178.8 62.8001C180 61.5001 180.701 59.9001 180.701 58.1001Z" fill="#023020"/>
<path d="M207.9 49.4V37.8H213.8V69.5H208V66.7C206.2 68.9 203.8 70 201 70C197.7 70 195.1 68.9 192.9 66.6C190.8 64.3 189.7 61.4 189.7 58C189.7 54.6 190.8 51.8 192.9 49.5C195.1 47.2 197.8 46.1 201 46.1C203.7 46.2 206 47.3 207.9 49.4ZM208.2 58.1C208.2 56.3 207.6 54.7 206.4 53.5C205.2 52.2 203.7 51.6 201.9 51.6C200 51.6 198.5 52.2 197.3 53.5C196.1 54.8 195.5 56.3 195.5 58.1C195.5 60 196.1 61.5 197.3 62.8C198.5 64.1 200 64.7 201.9 64.7C203.8 64.7 205.3 64.1 206.4 62.8C207.6 61.6 208.2 60 208.2 58.1Z" fill="#023020"/>
<path d="M240.5 57.6C240.5 58.3 240.4 59.2 240.3 60.2H223.2C224 63.4 226.2 65 229.8 65C232.4 65 234.9 64.2 237.1 62.7L239.4 66.8C236.5 68.9 233.2 69.9 229.5 69.9C225.5 69.9 222.5 68.7 220.3 66.4C218.2 64.1 217.1 61.3 217.1 58C217.1 54.5 218.2 51.7 220.4 49.4C222.6 47.1 225.4 46 229 46C232.3 46 235 47 237.2 49.1C239.5 51.4 240.5 54.1 240.5 57.6ZM229.2 51.1C227.7 51.1 226.5 51.5 225.4 52.4C224.4 53.2 223.7 54.4 223.3 55.9H234.9C234.6 54.4 234 53.3 233 52.4C231.9 51.5 230.7 51.1 229.2 51.1Z" fill="#023020"/>
<path d="M271.5 46.2001C274.2 46.2001 276.4 47.0001 278.1 48.7001C279.9 50.4001 280.701 52.8001 280.701 55.8001V69.5001H274.8V56.9001C274.8 55.2001 274.4 53.9001 273.6 53.0001C272.8 52.1001 271.7 51.6001 270.3 51.6001C268.8 51.6001 267.601 52.1001 266.701 53.1001C265.801 54.1001 265.3 55.4001 265.3 57.1001V69.6001H259.4V56.9001C259.4 55.2001 259.001 53.9001 258.201 53.0001C257.401 52.1001 256.3 51.6001 254.8 51.6001C253.4 51.6001 252.201 52.1001 251.201 53.1001C250.301 54.1001 249.8 55.4001 249.8 57.1001V69.5001H244V46.8001H249.8V50.0001C250.4 48.8001 251.4 47.9001 252.6 47.1001C253.9 46.4001 255.201 46.1001 256.701 46.1001C258.101 46.1001 259.501 46.4001 260.701 47.1001C261.901 47.8001 262.8 48.8001 263.4 50.1001C264.2 48.8001 265.4 47.9001 266.8 47.2001C268.3 46.5001 269.8 46.2001 271.5 46.2001Z" fill="#023020"/>
<path d="M294.3 61.6L299.5 46.8H305.9L296.8 70.7C295.7 73.6 294.4 75.8 292.8 77.2C291.3 78.6 289.4 79.3 287.1 79.3C285.4 79.3 283.9 78.9 282.7 78.2L283.7 73.3C284.7 73.8 285.7 74.1 286.6 74.1C288.4 74.1 289.9 72.9 291 70.5L291.5 69.5L281.6 47H288.4L294.3 61.6Z" fill="#023020"/>
<path d="M68.1002 59.8L63.7001 57.4C63.4001 57.3 63.1001 57.3 63.0001 57.6C58.4001 64.5 52.1001 67.9 44.0001 67.9C36.1001 67.9 29.8001 64.5 24.9001 57.6C24.7001 57.4 24.4001 57.3 24.1001 57.4L19.8001 59.9C19.5001 60.1 19.4001 60.4 19.6001 60.7C22.1001 65.3 25.4001 68.9 29.5001 71.4C33.8001 74 38.6001 75.3 44.0001 75.3C49.5001 75.3 54.3001 74 58.5001 71.4C62.6001 68.9 65.9001 65.3 68.4001 60.6C68.5001 60.3 68.4002 60 68.1002 59.8Z" fill="#023020"/>
<path d="M30.7001 4.70007H2.7001C1.3001 4.70007 0.100098 5.90007 0.100098 7.30007V35.3001C0.100098 36.7001 1.3001 37.9001 2.7001 37.9001H30.7001C32.1001 37.9001 33.3001 36.7001 33.3001 35.3001V7.30007C33.3001 5.80007 32.2001 4.70007 30.7001 4.70007ZM85.2001 4.70007H57.2001C55.8001 4.70007 54.6001 5.90007 54.6001 7.30007V35.3001C54.6001 36.7001 55.8001 37.9001 57.2001 37.9001H85.2001C86.6001 37.9001 87.8001 36.7001 87.8001 35.3001V7.30007C87.8001 5.80007 86.6001 4.70007 85.2001 4.70007ZM28.9001 23.3001C28.9001 23.9001 28.4001 24.4001 27.8001 24.4001H19.9001V32.3001C19.9001 32.9001 19.4001 33.4001 18.8001 33.4001L14.7001 33.5001C14.1001 33.5001 13.6001 33.0001 13.6001 32.4001V24.4001H5.6001C5.0001 24.4001 4.5001 23.9001 4.5001 23.3001V19.1001C4.5001 18.5001 5.0001 18.0001 5.6001 18.0001H13.6001V10.1001C13.6001 9.50007 14.1001 9.00007 14.7001 9.00007H18.8001C19.4001 9.00007 19.9001 9.50007 19.9001 10.1001V18.0001H27.8001C28.4001 18.0001 28.9001 18.5001 28.9001 19.1001V23.3001ZM81.0001 23.3001C81.0001 23.9001 80.5001 24.4001 79.9001 24.4001H62.4001C61.8001 24.4001 61.3001 23.9001 61.3001 23.3001V19.2001C61.3001 18.6001 61.8001 18.1001 62.4001 18.1001H79.9001C80.5001 18.1001 81.0001 18.6001 81.0001 19.2001V23.3001Z" fill="#023020"/>
</svg>
