<svg width="516" height="613" viewBox="0 0 516 613" fill="none" xmlns="http://www.w3.org/2000/svg">
<path d="M258.2 446.4L0.899902 411.7L159.6 206.2L318.3 0.700195L416.9 240.9L515.5 481.1L258.2 446.4Z" fill="#FFCE32"/>
<path d="M269.5 435L260 612.101H144C144 612.101 145.6 572.401 220.3 585.101L215.5 433.4L269.5 435Z" fill="#FFCE32"/>
<path d="M312.4 435L321.9 612.101H437.9C437.9 612.101 436.3 572.401 361.6 585.101L366.4 433.4L312.4 435Z" fill="#FFCE32"/>
<path d="M325.9 201.6L320.8 197.8C320.5 197.6 320.1 197.6 319.8 197.9C312.7 205.6 304.1 208.7 294 207.2C284.1 205.7 276.8 200.2 272 190.6C271.8 190.3 271.4 190.1 271.1 190.2L265.2 192.5C264.8 192.6 264.7 193.1 264.8 193.4C267 199.7 270.5 204.8 275.1 208.7C280 212.8 285.8 215.3 292.5 216.3C299.3 217.3 305.7 216.6 311.4 214.2C317 211.8 321.8 207.9 325.9 202.5C326.3 202.3 326.2 201.8 325.9 201.6Z" fill="#023020"/>
<path d="M289.6 125.2L254.4 119.8C252.6 119.5 250.9 120.8 250.7 122.5L245.3 157.7C245 159.5 246.3 161.2 248 161.4L283.2 166.8C285 167.1 286.7 165.8 286.9 164.1L292.3 128.9C292.6 127.2 291.4 125.5 289.6 125.2ZM357.9 135.6L322.7 130.2C320.9 129.9 319.2 131.2 319 132.9L313.6 168.1C313.3 169.9 314.6 171.6 316.3 171.8L351.5 177.2C353.3 177.5 355 176.2 355.2 174.5L360.6 139.3C360.9 137.6 359.7 135.9 357.9 135.6ZM284.7 134.9C285.2 135.5 285 136.4 284.4 136.9L257.9 156.4C257.3 156.9 256.4 156.7 255.9 156.1L252.8 151.9C252.3 151.3 252.5 150.4 253.1 149.9L279.6 130.4C280.2 129.9 281.1 130.1 281.6 130.7L284.7 134.9ZM351.2 146.8C351.7 147.4 351.5 148.3 350.9 148.8L342.8 154.7L348.7 162.8C349.2 163.4 349 164.3 348.4 164.7L344.2 167.9C343.6 168.4 342.7 168.2 342.2 167.6L336.2 159.4L328 165.4C327.4 165.9 326.5 165.7 326 165.1L322.9 160.8C322.4 160.2 322.6 159.3 323.2 158.8L331.4 152.8L325.4 144.7C324.9 144.1 325.1 143.2 325.7 142.7L329.9 139.6C330.5 139.1 331.4 139.3 331.9 139.9L337.9 148L346 142.1C346.6 141.6 347.5 141.8 348 142.4L351.2 146.8Z" fill="#023020"/>
</svg>
