<svg width="453" height="626" viewBox="0 0 453 626" fill="none" xmlns="http://www.w3.org/2000/svg">
<path d="M452.815 34.7217L34.2012 0.808105L0.287532 419.422L418.902 453.336L452.815 34.7217Z" fill="#FFCE32"/>
<path d="M178.8 140.8L172.5 136.6C172.1 136.4 171.6 136.4 171.4 136.8C163.5 146.4 153.4 150.6 141.2 149.4C129.3 148.2 120.3 142.1 114 131C113.8 130.6 113.3 130.4 112.9 130.6L106 133.7C105.6 133.9 105.4 134.4 105.6 134.8C108.6 142.1 113 148 118.9 152.4C124.9 156.9 132 159.6 140.1 160.4C148.3 161.2 155.8 160 162.5 156.8C169 153.7 174.5 148.7 179 142C179.3 141.6 179.2 141 178.8 140.8Z" fill="#023020"/>
<path d="M212.901 60.3001L170.7 56.1001C168.6 55.9001 166.601 57.5001 166.401 59.6001L162.2 101.8C162 103.9 163.6 105.9 165.7 106.1L207.901 110.3C210.001 110.5 212 108.9 212.2 106.8L216.401 64.6001C216.601 62.4001 215.101 60.5001 212.901 60.3001ZM130.901 52.1001L88.7005 47.9C86.6005 47.7 84.6006 49.3 84.4006 51.4L80.2005 93.6001C80.0005 95.7001 81.6005 97.7 83.7005 97.9L125.901 102.1C128.001 102.3 130 100.7 130.2 98.6001L134.401 56.4C134.601 54.2 133.001 52.3001 130.901 52.1001ZM207.001 82.5L206.501 87.3001C206.401 88.1001 205.901 88.9001 205.101 89.1001L172.601 100.4C172.101 100.6 171.6 100.2 171.7 99.7L172.401 93.2C172.401 92.9 172.601 92.7001 172.901 92.6001L197.401 84.5C197.801 84.4 197.901 83.8 197.501 83.5L175.101 70.6001C174.901 70.5001 174.701 70.2 174.801 69.9L175.501 63.3001C175.601 62.8001 176.101 62.5001 176.601 62.8001L206.2 80.3001C206.7 80.9001 207.101 81.7 207.001 82.5ZM91.4006 69.0001L123.901 57.7C124.401 57.5 124.901 57.9 124.801 58.4L124.101 65.0001C124.101 65.3001 123.901 65.5001 123.601 65.6001L99.1005 73.8001C98.7005 73.9001 98.6005 74.5001 99.0005 74.8001L121.401 87.6001C121.601 87.7001 121.8 88.0001 121.7 88.3001L121.001 94.8001C120.901 95.3001 120.401 95.6001 119.901 95.3001L90.3006 77.8001C89.6006 77.4001 89.2005 76.6 89.2005 75.7L89.7005 70.9C90.1005 70 90.6006 69.2001 91.4006 69.0001Z" fill="#023020"/>
<path d="M253.051 426.336L283.851 619.236L410.951 605.836C410.951 605.836 404.651 562.536 324.251 585.036L312.051 418.336L253.051 426.336Z" fill="#FFCE32"/>
<path d="M210.05 434.736L168.25 625.536L42.1504 604.936C42.1504 604.936 50.9505 562.036 129.85 589.136L151.65 423.436L210.05 434.736Z" fill="#FFCE32"/>
</svg>
