<svg width="541" height="661" viewBox="0 0 541 661" fill="none" xmlns="http://www.w3.org/2000/svg">
<path d="M270.8 540.2C419.917 540.2 540.8 419.317 540.8 270.2C540.8 121.083 419.917 0.200195 270.8 0.200195C121.683 0.200195 0.800049 121.083 0.800049 270.2C0.800049 419.317 121.683 540.2 270.8 540.2Z" fill="#FFCE32"/>
<path d="M270.2 507.8L244.8 651.1L123.2 615.8C123.2 615.8 155 571.2 195.6 607.2L209.3 457.8L270.2 507.8Z" fill="#FFCE32"/>
<path d="M386.9 484L400.6 622.5C424.5 586.4 464.1 635.5 464.1 635.5L346.5 660.6L327.5 513.8L386.9 484Z" fill="#FFCE32"/>
<path d="M311.8 176.301L302.4 173.401C301.8 173.201 301.3 173.501 301 174.101C294.8 189.101 283.9 198.201 268.2 201.301C253 204.401 239.3 200.201 227.3 188.801C226.9 188.401 226.2 188.401 225.8 188.801L218.5 195.301C218.1 195.701 218 196.401 218.4 196.901C224.9 204.901 232.7 210.501 241.6 213.701C250.8 217.001 260.7 217.701 271.1 215.601C281.6 213.501 290.5 209.101 297.6 202.501C304.5 196.101 309.5 187.801 312.5 177.701C312.7 177.101 312.4 176.401 311.8 176.301Z" fill="#023020"/>
<path d="M218.3 84.1004L164.1 95.0004C161.3 95.6004 159.6 98.2004 160.1 101L171 155.2C171.6 158 174.2 159.7 177 159.2L231.2 148.3C234 147.7 235.7 145.1 235.2 142.3L224.3 88.1004C223.7 85.4004 221 83.6004 218.3 84.1004ZM323.5 63.0004L269.3 73.9004C266.5 74.5004 264.8 77.1004 265.3 79.9004L276.2 134.1C276.8 136.9 279.4 138.6 282.2 138.1L336.4 127.2C339.2 126.6 340.9 124 340.4 121.2L329.5 67.0004C329 64.3004 326.3 62.5004 323.5 63.0004ZM222 120.9C222.2 122.1 221.5 123.2 220.3 123.5L205 126.6L208.1 141.9C208.3 143.1 207.6 144.2 206.4 144.5L198.5 146.2C197.3 146.5 196.1 145.7 195.9 144.5L192.8 129.1L177.4 132.2C176.2 132.4 175.1 131.7 174.8 130.5L173.2 122.5C173 121.3 173.7 120.2 174.9 119.9L190.3 116.8L187.2 101.4C187 100.2 187.7 99.1005 188.9 98.8005L196.8 97.2004C198 97.0004 199.1 97.7004 199.4 98.9004L202.5 114.3L217.8 111.2C219 111 220.1 111.7 220.4 112.9L222 120.9ZM322.7 100.7C322.9 101.9 322.2 103 321 103.3L287.2 110.1C286 110.3 284.9 109.6 284.6 108.4L283 100.5C282.8 99.3004 283.5 98.2004 284.7 97.9004L318.5 91.1004C319.7 90.9004 320.8 91.6005 321.1 92.8005L322.7 100.7Z" fill="#023020"/>
</svg>
