<svg width="524" height="639" viewBox="0 0 524 639" fill="none" xmlns="http://www.w3.org/2000/svg">
<path d="M265.7 443.1L255.2 638.2H127.4C127.4 638.2 129.2 594.4 211.4 608.4L206.1 441.3L265.7 443.1Z" fill="#FFCE32"/>
<path d="M309.4 447L371 632.4L494.3 598.7C494.3 598.7 481.1 557 405.4 592.1L366.4 429.5L309.4 447Z" fill="#FFCE32"/>
<path d="M368.5 0.100098L106.7 28L0 268.7L155.1 481.4L416.9 453.5L523.6 212.8L368.5 0.100098Z" fill="#FFCE32"/>
<path d="M291.5 137L284.3 134.2C283.9 134 283.4 134.2 283.2 134.6C277.4 146 268.3 152.4 255.9 153.9C243.8 155.3 233.4 151.2 224.7 141.6C224.4 141.3 223.9 141.2 223.5 141.5L217.4 146.2C217 146.5 216.9 147 217.2 147.4C221.8 154 227.5 158.9 234.3 162C241.3 165.2 249 166.3 257.3 165.3C265.7 164.3 272.9 161.4 278.9 156.7C284.7 152.1 289.1 146 292.1 138.2C292.2 137.7 291.9 137.2 291.5 137Z" fill="#023020"/>
<path d="M307.7 49.0999L264.6 54.1997C262.4 54.4997 260.8 56.3999 261.1 58.5999L266.2 101.7C266.5 103.9 268.4 105.5 270.6 105.2L313.7 100.1C315.9 99.7999 317.5 97.8997 317.2 95.6997L312.1 52.5999C311.9 50.3999 309.9 48.8999 307.7 49.0999ZM272.3 66.0999L303.1 62.3997C303.8 62.2997 304.5 62.7999 304.6 63.5999L305.2 68.9998C305.3 69.6998 304.8 70.3998 304 70.4998L273.2 74.1997C272.5 74.2997 271.8 73.7999 271.7 73.0999L271.1 67.6997C271.1 66.8997 271.6 66.1999 272.3 66.0999ZM274.4 83.9998L305.2 80.2998C305.9 80.1998 306.6 80.6998 306.7 81.4998L307.3 86.8997C307.4 87.5997 306.9 88.2997 306.1 88.3997L275.3 92.0999C274.6 92.1999 273.9 91.6997 273.8 90.8997L273.2 85.4998C273.2 84.6998 273.7 84.0998 274.4 83.9998ZM224 59.0999L180.9 64.1997C178.7 64.4997 177.1 66.3999 177.4 68.5999L182.5 111.7C182.8 113.9 184.7 115.5 186.9 115.2L230 110.1C232.2 109.8 233.8 107.9 233.5 105.7L228.4 62.5999C228.2 60.3999 226.2 58.7999 224 59.0999ZM208.8 73.6997C209.1 76.3997 207.2 78.7997 204.5 79.1997C201.8 79.4997 199.4 77.5997 199 74.8997C198.6 72.1997 200.6 69.7997 203.3 69.3997C206.1 68.9997 208.5 70.9997 208.8 73.6997ZM211.9 99.4998C212.2 102.2 210.3 104.6 207.6 105C204.9 105.3 202.5 103.4 202.1 100.7C201.8 97.9997 203.7 95.5997 206.4 95.1997C209.2 94.8997 211.6 96.7998 211.9 99.4998ZM189.6 84.9998L220.4 81.2998C221.1 81.1998 221.8 81.6998 221.9 82.4998L222.5 87.8997C222.6 88.5997 222.1 89.2997 221.3 89.3997L190.5 93.0999C189.8 93.1999 189.1 92.6997 189 91.8997L188.4 86.4998C188.4 85.7998 188.9 85.0998 189.6 84.9998Z" fill="#023020"/>
</svg>
