<svg width="88" height="71" viewBox="0 0 88 71" fill="none" xmlns="http://www.w3.org/2000/svg">
<path d="M68.0001 55.3001L63.6 52.9001C63.3 52.8001 63 52.8001 62.9 53.1001C58.3 60.0001 52 63.4001 43.9 63.4001C36 63.4001 29.7001 60.0001 24.8 53.1001C24.6 52.9001 24.3 52.8001 24 52.9001L19.7001 55.4001C19.4001 55.6001 19.3 55.9001 19.5 56.2001C22 60.8001 25.3 64.4001 29.4 66.9001C33.7 69.5001 38.5 70.8001 43.9 70.8001C49.4 70.8001 54.2 69.5001 58.4 66.9001C62.5 64.4001 65.8 60.8001 68.3 56.1001C68.4 55.8001 68.3001 55.5001 68.0001 55.3001Z" fill="#023020"/>
<path d="M30.6 0.200195H2.6C1.2 0.200195 0 1.40019 0 2.80019V30.8002C0 32.2002 1.2 33.4002 2.6 33.4002H30.6C32 33.4002 33.2 32.2002 33.2 30.8002V2.80019C33.2 1.30019 32.1 0.200195 30.6 0.200195ZM85.1 0.200195H57.1C55.7 0.200195 54.5 1.40019 54.5 2.80019V30.8002C54.5 32.2002 55.7 33.4002 57.1 33.4002H85.1C86.5 33.4002 87.7 32.2002 87.7 30.8002V2.80019C87.7 1.30019 86.5 0.200195 85.1 0.200195ZM28.8 18.8002C28.8 19.4002 28.3 19.9002 27.7 19.9002H19.8V27.8002C19.8 28.4002 19.3 28.9002 18.7 28.9002L14.6 29.0002C14 29.0002 13.5 28.5002 13.5 27.9002V19.9002H5.5C4.9 19.9002 4.4 19.4002 4.4 18.8002V14.6002C4.4 14.0002 4.9 13.5002 5.5 13.5002H13.5V5.60019C13.5 5.00019 14 4.50019 14.6 4.50019H18.7C19.3 4.50019 19.8 5.00019 19.8 5.60019V13.5002H27.7C28.3 13.5002 28.8 14.0002 28.8 14.6002V18.8002ZM80.9 18.8002C80.9 19.4002 80.4 19.9002 79.8 19.9002H62.3C61.7 19.9002 61.2 19.4002 61.2 18.8002V14.7002C61.2 14.1002 61.7 13.6002 62.3 13.6002H79.8C80.4 13.6002 80.9 14.1002 80.9 14.7002V18.8002Z" fill="#023020"/>
</svg>
